<svg xmlns="http://www.w3.org/2000/svg" width="1527" height="141" viewBox="0 0 1527 141" fill="none">
<g clip-path="url(#clip0_59_3)">
<path d="M9.67743 157V18.8063H56.3226C79.1614 18.8063 95.613 27.3224 95.613 53.8386C95.613 68.7418 88.4517 80.1612 74.7098 84.0322V84.4193C90.0001 86.5483 99.8711 98.1612 99.8711 116.548C99.8711 138.226 89.2259 157 56.7097 157H9.67743ZM37.5484 39.3224V75.516H45.4839C60.7743 75.516 67.742 70.2902 67.742 57.3225C67.742 44.1612 61.3549 39.3224 47.613 39.3224H37.5484ZM37.5484 94.8709V136.484H48.3872C61.742 136.484 70.8388 131.645 70.8388 115.581C70.8388 99.5161 61.742 94.8709 49.5484 94.8709H37.5484ZM145.096 39.3224V79.1935H156.709C170.064 79.1935 177.613 73.387 177.613 58.4838C177.613 45.7095 170.838 39.3224 158.258 39.3224H145.096ZM117.225 157V18.8063H168.709C191.548 18.8063 205.484 30.8063 205.484 54.4192C205.484 72.8063 198.129 85.1935 182.451 88.4838V88.8709C201.419 91.387 204.322 101.839 204.709 131.064C204.903 145.581 205.677 153.129 210.903 155.839V157H180.709C178 153.129 177.419 147.903 177.226 142.484L176.451 115.968C176.064 105.129 171.226 98.5483 160 98.5483H145.096V157H117.225ZM215.096 157L251.677 18.8063H286.128L322.709 157H293.677L287.29 127.774H250.515L244.128 157H215.096ZM268.709 42.8063L255.354 104.935H282.451L269.096 42.8063H268.709ZM332.321 18.8063H364.451L398.128 113.452H398.515V18.8063H424.064V157H392.322L358.257 60.2257H357.87V157H332.321V18.8063ZM444.816 157V18.8063H490.493C529.203 18.8063 536.17 45.3224 536.17 85.9677C536.17 134.935 525.719 157 488.751 157H444.816ZM472.687 39.3224V136.484H485.074C504.429 136.484 508.299 124.29 508.299 86.7419C508.299 55.387 505.783 39.3224 484.493 39.3224H472.687ZM554.6 18.8063H586.729L620.407 113.452H620.794V18.8063H646.342V157H614.6L580.535 60.2257H580.148V157H554.6V18.8063ZM656.062 157L692.642 18.8063H727.094L763.675 157H734.643L728.255 127.774H691.481L685.094 157H656.062ZM709.675 42.8063L696.32 104.935H723.417L710.062 42.8063H709.675ZM773.868 157V18.8063H815.287L835.029 116.355H835.416L855.352 18.8063H896.578V157H871.029V46.6773H870.642L846.062 157H824.384L799.803 46.6773H799.416V157H773.868ZM916.559 18.8063H993.784V41.645H944.43V74.1612H990.881V96.9999H944.43V134.161H995.72V157H916.559V18.8063ZM1095.87 99.3225H1115.23C1112.32 118.677 1096.84 129.516 1080.39 129.516C1055.81 129.516 1040.32 110.742 1040.32 87.3225C1040.32 63.516 1055.03 45.1289 1079.81 45.1289C1097.03 45.1289 1111.94 55.387 1114.45 74.7418H1095.87C1093.94 67.1934 1088.52 61.7741 1078.84 61.7741C1065.48 61.7741 1058.52 72.6128 1058.52 87.3225C1058.52 101.452 1066.26 112.871 1078.64 112.871C1088.13 112.871 1094.71 107.452 1095.87 99.3225ZM1027.35 87.9031C1027.35 115.968 1048.64 139.194 1077.48 139.194C1106.32 139.194 1127.61 115.968 1127.61 87.9031C1127.61 59.8386 1106.32 36.6128 1077.48 36.6128C1048.64 36.6128 1027.35 59.8386 1027.35 87.9031ZM1005.68 87.9031C1005.68 48.2257 1037.81 16.0966 1077.48 16.0966C1117.16 16.0966 1149.29 48.2257 1149.29 87.9031C1149.29 127.581 1117.16 159.71 1077.48 159.71C1037.81 159.71 1005.68 127.581 1005.68 87.9031ZM1242.74 135.323V157H1158.35C1158.35 132.613 1168.22 115.774 1188.54 96.9999L1199.77 86.5483C1211.96 75.516 1214.09 69.3225 1214.09 55.1934C1214.09 43.7741 1209.25 38.1611 1200.54 38.1611C1186.61 38.1611 1185.25 50.3547 1185.06 64.8709H1158.35V59.645C1158.35 34.2902 1171.7 19.9676 1200.93 19.9676C1228.41 19.9676 1241.96 33.7095 1241.96 57.3225C1241.96 75.1289 1236.35 86.7419 1220.67 100.871L1205.19 115.193C1197.06 122.548 1192.41 130.097 1191.06 135.323H1242.74ZM1279.21 84.2257V99.129C1279.21 133.581 1282.31 141.516 1294.31 141.516C1306.5 141.516 1309.41 130.677 1309.41 95.4515V80.5483C1309.41 46.0966 1306.31 38.1611 1294.31 38.1611C1282.12 38.1611 1279.21 48.9999 1279.21 84.2257ZM1251.34 93.129C1251.34 55.1934 1253.47 19.9676 1294.31 19.9676C1327.41 19.9676 1337.28 37.9676 1337.28 86.5483C1337.28 124.677 1335.15 159.71 1294.31 159.71C1261.21 159.71 1251.34 141.71 1251.34 93.129ZM1428.72 135.323V157H1344.34C1344.34 132.613 1354.21 115.774 1374.53 96.9999L1385.76 86.5483C1397.95 75.516 1400.08 69.3225 1400.08 55.1934C1400.08 43.7741 1395.24 38.1611 1386.53 38.1611C1372.6 38.1611 1371.24 50.3547 1371.05 64.8709H1344.34V59.645C1344.34 34.2902 1357.69 19.9676 1386.92 19.9676C1414.4 19.9676 1427.95 33.7095 1427.95 57.3225C1427.95 75.1289 1422.34 86.7419 1406.66 100.871L1391.18 115.193C1383.05 122.548 1378.4 130.097 1377.05 135.323H1428.72ZM1516.11 22.6773V44.3547H1465.59L1462.69 75.516H1463.07C1468.3 68.3547 1476.43 65.2579 1488.23 65.2579C1514.56 65.2579 1521.72 87.3225 1521.72 109C1521.72 139 1513.01 159.71 1477.78 159.71C1442.94 159.71 1437.33 136.871 1437.33 121.581V117.903H1464.04C1464.04 127 1465.59 140.355 1477.59 140.355C1488.82 140.355 1493.85 131.452 1493.85 113.645C1493.85 90.9999 1490.36 84.6128 1477.78 84.6128C1469.85 84.6128 1465.59 89.4515 1464.62 97.1935H1439.65L1444.69 22.6773H1516.11Z" fill="black"/>
</g>
<defs>
<clipPath id="clip0_59_3">
<rect width="1527" height="141" fill="none"/>
</clipPath>
</defs>
</svg>